<?xml version="1.0" encoding="UTF-8"?>
<svg id="_레이어_2" data-name="레이어 2" xmlns="http://www.w3.org/2000/svg" viewBox="0 0 526.54 446.81">
  <defs>
    <style>
      .cls-1 {
        fill: none;
        stroke: #000;
        stroke-miterlimit: 10;
      }
    </style>
  </defs>
  <g id="_레이어_1-2" data-name="레이어 1">
    <path id="path" class="cls-1" d="m283.54,446.64c2.02-5.8,6.26-18.48,4-34-2.01-13.8-7.32-17.23-6-28,1.21-9.89,6.14-10.71,11-22,5.65-13.12,9.99-37.58-1-54-5.3-7.91-14.37-14.27-13-23,.5-3.18,2-6,2-6,2.8-5.26,6.11-5.41,10-11,1.59-2.28,4.36-6.28,3-9-.62-1.24-2.01-2.03-8-3-10.74-1.73-16.2-.79-17-3-.58-1.61,1.72-3.74,2-4,1.93-1.76,4.28-1.87,8-2,6.01-.21,12.01-1.47,18-1,.38.03,2.71.22,5-1,1.66-.88,1.94-1.79,2-2,.32-1.15-.3-2.35-1-3-.82-.76-1.84-.85-3-1-.99-.13-1.74-.03-2,0-2.98.35-6,0-9,0-3.33,0-6.67-.05-10,0-3.5.05-4.6.12-7,0-4.35-.22-2.09-.53-7-1-1.06-.1-2.13-.18-3-1-.74-.69-1.3-1.89-1-3,.24-.86.94-1.41,2-2,2.95-1.64,5.79-1.94,6-2,4.07-1.14,7.22-1.6,10-2,5.91-.84,10.55-.97,12-1,4.98-.1,7.48-.15,9,0,0,0,1.48.15,4,0,2.81-.16,3.52-.55,4-1,.72-.68,1.31-1.88,1-3-.28-.99-1.15-1.5-2-2-1.21-.71-2.34-.91-3-1-2.27-.33-3.68-.11-6,0-2,.1-4,0-6,0h-37c-2.67,0-5.35-.34-8,0-2.19.28-3.45.69-5,0-1.49-.66-3.11-2.27-3-4,.12-1.97,2.4-3.16,4-4,3.72-1.95,7.3-1.99,8-2,5.71-.08,11.31-1.58,17-2,2.4-.18,9.6-.78,24-2,7.98-.67,11.32-.98,16-1,5.53-.02,8.3-.04,9,0,.86.05,2.57.03,6,0,3.08-.03,4.42-.08,5-1,.56-.89.21-2.23,0-3-.17-.64-.37-1.39-1-2-.29-.28-.9-.76-3-1-1.51-.17-2.43-.06-4,0,0,0-.09,0-4,0-4.18,0-9.49-.9-12-1-2.78-.11-4.28-.1-14,0-13.22.13-14.46.14-17,0-6.68-.36-6.14-.83-12-1-7.45-.22-7.98.55-14,0-5.97-.54-6.37-1.38-10-1-1.55.16-3.93.58-7,0-1.53-.29-2.97-.77-4-2-.75-.89-.96-1.79-1-2-.45-2.12.84-3.8,1-4,.24-.3,1.18-1.41,4-2,3.01-.63,5.5-.1,6,0,.37.08,4.58.05,13,0,9.28-.06,9.73-.85,20-1,7.97-.12,9.16.21,17,0,10.03-.27,9.49-.83,19-1,9.77-.17,14.65-.26,17,0,2.65.29,5.33-.05,8,0,1.84.03,3.5.09,5-1,.33-.24,1.64-1.22,2-3,.4-1.97-.64-3.52-1-4-.28-.37-1.09-1.35-3-2-2.61-.89-4.72,0-7,0-6.54,0-7.35.04-9,0-5.44-.12-7.09-.63-12-1-6.15-.47-6.42.11-15,0-8.8-.12-9.02-.74-19-1-8.82-.23-7.36.29-15,0-8.59-.32-11.19-1.01-20-1-2.33,0-4.67-.06-7,0-2.51.07-8.21.28-13-1-.96-.26-2.48-.74-3-2-.37-.9-.07-1.81,0-2,.14-.38.52-1.21,2-2,2.15-1.15,4.37-1.03,5-1,3,.15,6.02-.33,9,0,3.65.41,3.98-.32,19-1,8.75-.4,17.8-.81,29-1,3.33-.06,1.42,0,33,0h28c3.65.36,5.89,1.02,9,0,1.26-.41,3.44-1.15,4-3,.58-1.91-.72-3.62-1-4-1.56-2.07-4.14-2.52-8-3-5.98-.74-8.97-1.11-11-1-15.98.83-31.99-1.19-47.99-1-19.33.22-38.67,0-58.01,0H13.54c-1.2.12-3.8.08-9,0-.48,0-1.9-.05-3-1-.25-.21-1.23-1.12-1-2,.13-.47.55-.76,1-1,2.05-1.09,4-1,4-1,4.01.19,7.99-.83,12-1,6.38-.27,5.63-.73,12-1,2.56-.11,2.72-.04,11,0,16.56.07,16,0,16,0h61c3,0,6-.15,9,0,3.18.15,16.14.95,20,0,.62-.15.68-.26,3-1,1.33-.42,1.84-.56,2-1,.23-.62-.38-1.5-1-2-1.33-1.07-2.5-.25-5-1-1-.3-2.6-.78-3-2-.35-1.06.33-2.32,1-3,1.89-1.91,5.46-.91,10,0,8.14,1.62,5.89.24,15,2,4.12.8,8.62,1.86,14,1,1.23-.2,2.97-.57,4-2,1.29-1.79.83-4.37,0-6-1.17-2.29-3.37-3.29-5-4-7.06-3.08-13.18-5.32-15-6-6.45-2.4-9.67-3.59-12-5-1.13-.68-2.15-1.48-4-2-1.66-.47-2.49-.28-3-1-.96-1.35-.12-3.31,1-4,.99-.61,2.22-.25,3,0,5.4,1.69,8.1,2.53,9,3,.66.34,5.11,1.56,14,4,7.27,1.99,9.64,2.57,13,2,4.27-.72,5.66-2.52,6-3,1.75-2.45,1.12-5.45,1-6-.4-1.89-1.4-3.4-3-5-3.66-3.67-7.75-5.09-10-6-6.84-2.77-5.12-4.21-14-9-4.74-2.55-13.66-6.7-20-11-1-.68-3.04-2.11-3-4,.04-1.78,1.91-2.94,2-3,1.93-1.17,4.17-.32,5,0,2.19.83,3.47,2.39,4,3,.76.88,3.84,2.92,10,7,4.06,2.69,4.06,2.5,13,8,5.16,3.18,9.18,5.71,15,8,1.91.75,4.73,1.76,8,1,1.04-.24,3.48-.8,5-3,1.6-2.3,1.17-4.94,1-6-.26-1.59-.84-2.82-3-6-2.77-4.08-4.15-6.12-6-8-3.63-3.7-5.45-5.55-8-7-1-.57-2.65-1.41-3-3-.22-1.01.06-2.36,1-3,1.02-.69,2.36-.23,3,0,2.33.84,3.09,2.62,5,5,1.97,2.46,3.98,3.98,8,7,1.61,1.21,3.05,2.18,5,3,2.91,1.22,4.49,1.07,5,1,1.2-.16,2.12-.59,3-1,1.31-.61,2.28-1.06,3-2,.25-.32.95-1.32,1-4,.06-3.2-.86-5.64-1-6-2.41-6.21-6-12-6-12-4.3-6.95-6.38-9.86-8-15-.93-2.97-1.37-5.57,0-7,.77-.81,1.99-1.11,3-1,2.41.27,3.9,2.95,5,5,4.04,7.5,6.06,11.25,8,15,2.85,5.5,4.48,7.87,7,10,3,2.54,5.08,2.9,6,3,3.48.36,6.2-1.47,7-2,1-.67,2.22-1.49,3-3,1.11-2.15.58-4.32,0-7-1.82-8.49-.76-6.79-2-11-.92-3.13-1.27-3.29-6-14-1.45-3.3-2.85-6.51-4-11-1.57-6.1-1.01-7.99,0-9,.97-.97,2.62-1.39,4-1,1.74.49,2.57,2.13,3,3,1.2,2.39.56,3.92,1,7,.32,2.26.96,3.48,2,6,.79,1.93.62.32,5,15,1.79,5.99,2.67,9.79,6,14,3.09,3.91,5.57,4.74,7,5,.66.12,3.47.6,6-1,2.48-1.56,3.24-4.21,4-7,1.37-5.04,1.09-10.45,1-12-.1-1.76-.36-4.36,1-7,.35-.68,1.01-1.93,2-2,1.42-.11,2.64,2.28,3,3,1.39,2.73,1.63,5.65,1,15-.27,4.03-.4,4.67,0,6,.1.35,1.85,5.84,7,7,3.9.88,7.07-1.35,8-2,2.59-1.82,3.73-4.26,5-7,.43-.92,1.1-2.5,2-6,.69-2.7,1.49-6.42,2-11,0,0,.55-3.4,2-8,.53-1.67,1.21-3.6,3-5,.42-.33,1.94-1.53,3-1,.36.18.79.61,1,2,.47,3.05-.87,5.74-1,6-3.71,7.48-1.09,11.05-6,21-.73,1.49-1.73,3.31-2,6-.32,3.16.54,5.69,1,7,.81,2.31,1.37,3.9,3,5,1.91,1.29,4.07,1.09,5,1,.5-.05,2.55-.28,5-2,2.82-1.97,4.18-4.51,5-6,2.46-4.46,5.36-8.65,8-13,4.34-7.15,4.13-5.93,7-11,1.92-3.38,4.44-6.44,6-10,.67-1.54,1.66-4.06,4-5,.35-.14,1.9-.77,3,0,1.15.81,1.03,2.61,1,3-.15,2.15-1.68,3.67-2,4-3.89,3.95-5.87,9.42-9,14,0,0-6,8.78-11,20-.22.49-1.6,3.66-2,8-.43,4.65.64,6.46,1,7,.34.53,1.64,2.36,4,3,2.21.6,4.09-.19,6-1,.61-.26,2-.89,6-4,2.79-2.17,4.19-3.26,6-5,1.38-1.33,3.24-3.26,6-5,.47-.3,1.54-.95,3-1,.35-.01,2.32-.08,3,1,.58.93-.02,2.35-1,4-2.18,3.67-4.79,6.07-7,8-7.97,6.98-8,7-8,7-1.81,1.48-3.46,2.76-4,5-.24,1-.16,2,0,4,.21,2.57.31,3.85,1,5,1.25,2.08,3.44,2.83,4,3,2.32.71,4.45.05,7-1,4.69-1.94,7.35-3.8,11-6,7.34-4.42,6.65-2.95,11-6,3.44-2.41,5.63-3.61,10-6,.41-.23,1.97-1.05,4-1,.77.02,2.03.07,3,1,.16.15.97.93,1,2,.03,1.38-1.26,2.43-2,3-3.83,2.97-7.85,4.93-8,5-.17.08-2.78,1.72-8,5-11.43,7.18-10.53,6.8-11,7-2.51,1.11-4.72,1.75-6,4-.78,1.38-.9,2.81-1,4-.14,1.73-.33,3.94,1,6,1.27,1.96,3.22,2.71,4,3,1.28.47,2.85.72,7,0,1.36-.23,2.55-.49,8-2,2.96-.82,6.03-1.23,9-2,1.48-.39,2.96-.8,4,0,1.19.92,1.02,2.84,1,3-.21,2.05-2.01,3.31-3,4-1.16.81-1.94,1.01-5,2-4.69,1.52-3.79,1.35-6,2-2.72.79-3.9.99-7,2-1.32.43-2.64.9-4,2-.79.64-2.09,1.67-2,3,.04.67.41,1.18,1,2,.61.85,1.38,1.62,1.92,2,1.77,1.23,4.37.41,6.08,0,4.22-1,8.67,0,13,0h16c1.24-.24,2.58-.64,4,0,.42.19,1.49.76,2,2,.65,1.59-.13,3.08-.37,3.5-.18.3-.63,1.05-1.5,1.5-1.18.62-2.19.22-4.12,0-1.62-.18-3.27,0-4.9,0h-26.03c-2.36,0-4.72-.08-7.07,0-3,.1-6-.02-9,0-1.61.01-3.4.04-4-1-.32-.54-.14-1.11,0-2,.11-.69.07-2.13,0-5-.07-2.63-.49-4.63-1-7-.31-1.47-.86-3.96-2-7-1.2-3.19-2.46-5.36-4-8,0,0-2.84-4.86-6-9-15.51-20.33-37-30-37-30-7.83-3.57-19.92-9.09-36-8-24.58,1.67-40.15,17.17-46,23-11.43,11.38-16.16,22.9-19,30-1.19,2.97-9.4,23.54-3.35,28,1.69,1.24,3.24.32,13.17,0h11.14c18.01,0,36.02-.03,54.03,0,58.44.09,59,.39,77.01,0,15.68-.34,34.29-.99,54-1,9.7,0,13.68.27,23,0h96"/>
  </g>
</svg>