<?xml version="1.0" encoding="UTF-8"?>
<svg id="_레이어_2" data-name="레이어 2" xmlns="http://www.w3.org/2000/svg" viewBox="0 0 591.31 4043.33">
  <defs>
    <style>
      .cls-1 {
        fill: none;
        stroke: #000;
        stroke-miterlimit: 10;
      }
    </style>
  </defs>
  <g id="_레이어_1-2" data-name="레이어 1">
    <path id="path" class="cls-1" d="m314.81,4039.16c9.62,1.96,28.18,5.02,47,3,5.58-.6,14.05-1.95,23-4,6.09-1.4,11.19-2.84,15-4,4.39-1.9,7.26-3.6,13-7,0,0,6.75-4,13-10,.24-.23,2.13-2.09,3-5,.26-.87.68-2.32,0-3-.76-.77-2.51-.16-3,0-.69.22-7.45,1.43-21,1-4.66-.15-11.2-.38-19-2-3.26-.68-14.85-3.28-28-11-3.17-1.86-16.71-10.05-29-26-5.61-7.27-9.07-14.18-16-28-5.68-11.32-8.56-17.16-11-26-2.9-10.54-3.53-19.31-4-26-.54-7.65-.92-12.96,0-20,1.38-10.53,4.76-18.1,7-23,7.71-16.88,18.3-27.43,24-33,10.19-9.96,19.6-15.79,28-21,4.13-2.56,13.72-8.51,24-13,3.69-1.61,7.16-3.79,11-5,4.64-1.46,9.15-2.1,10-5,.27-.93.07-1.74,0-2-1.22-4.73-12.46-6.28-18-7-20.46-2.65-30.69-3.93-33-4-9.57-.29-26.76-.67-48,5-23.5,6.27-39.39,16.6-43,19-23.86,15.88-36.32,35.05-42,44-17.09,26.91-21.17,51.52-22,57-1.24,8.18-3.41,23.25,0,42,6.13,33.69,25.9,55.31,35,65,25.24,26.89,53.64,36.61,67,41,21.8,7.17,39.27,7.87,44,8,11.09.3,18.72-.8,34-3,0,0,16.12-2.32,30-9,1.74-.84,3.49-2.23,7-5,1.56-1.23,2.83-2.33,3-4,.02-.19.16-1.85-1-3-.22-.22-1.06-.99-3-1-3.41-.02-6.17,2.32-7,3-1.13.93-8.11,6.69-15,8-3.47.66-6.98-.23-14-2-5.54-1.4-7.53-2.65-9-4-1.18-1.09-3.24-2.98-4-6-.66-2.61.1-4.26-1-5-.94-.64-2.42-.04-5,1-.92.37-2.17.94-4,2-3.72,2.17-4.63,3.36-6,3-.99-.26-1.71-1.2-2-2-.48-1.31.13-2.42,2-7,1.1-2.68,1.3-3.31,1-4-.55-1.27-2.29-1.65-4-2-4.85-.99-7.37.6-9-1-.32-.32-.55-.7-1-3-.38-1.92-.81-4.64-1-8,0,0-1.95-.27-3,0-1.34.34-2.19,1.81-3,4-1.59,4.33-.99,5.99-2,10-.86,3.4-1.6,6.33-4,8-3.36,2.34-7.42.47-8,2-.57,1.5,3.02,4.25,4,5,1.17.9,1.23.73,5,3,2.9,1.75,4.05,2.56,5,4,.61.92,1.45,2.19,1,3-.73,1.3-4.35.65-8,0-2.59-.46-3.01-.76-5-1-2.52-.31-4.62-.17-6,0,1.96,1.96,2,2,2,2,.85.84,2.27,1.72,7,3,5.54,1.5,8.3,2.25,11,2,1.81-.17,3.08-.56,5,0,2.18.64,4.24,2.24,4,3-.14.43-1.1.92-8,0-10.96-1.46-19.36-4.14-22-5-10.87-3.53-16.31-5.3-20-7-14.59-6.73-13.56-10.23-24-15-1-.46-4.8-2.16-7-6-.55-.97-1.92-3.36-1-5,.92-1.65,3.21-.88,5-3,.98-1.15,1.66-2.98,1-4-.17-.27-.5-.56-3-1-3.04-.53-3.77-.3-5-1-.39-.22-1.49-.85-2-2-.76-1.74.07-4.12,2-6,3.3-.44-7.3,1.96-10,0-1.56-1.13-1.4-2.54-3-3-1.52-.43-3.04.44-4,1-3.02,1.74-3.43,4.13-5,4-.97-.08-1.9-1.07-2-2-.16-1.5,1.89-2.13,3-4,1.61-2.73.41-6.75-1-9-2.27-3.64-5.01-2.54-11-7-.9-.67-4-3.05-7-7-2.26-2.97-3.35-5.38-5-9-4-8.79-3.34-11.84-3-13,.34-1.15,1.13-3.03,2-3,.52.02.86.71,2,3,.66,1.33,1.34,2.66,2,4,.69,1.4,1.46,2.6,3,5,4.1,6.38,5.12,6.87,6,7,1.05.15,2.34-.15,3-1,.76-.97.47-2.39,0-4-1.41-4.77-2.5-8.5-6-12-1.05-1.05-2.29-2.05-3-4-.5-1.36-.84-3.46,0-4,.37-.24.98-.18,3,1,3.93,2.3,4.16,3.81,6,4,2.42.25,4.21-.88,6-2,1.55-.97,5.34-3.35,5-6-.19-1.45-1.53-2.35-4-4-2.36-1.57-4.93-2.58-6-3-2.65-1.03-3.68-1.1-4-2-.51-1.43,1.34-3.33,2-4,2.74-2.8,5.14-2.27,7-5,.48-.7,1.2-1.76,1-3-.43-2.65-4.73-3.92-5-4-2.67-.75-4,.1-5-1-.98-1.08-.95-3.27,0-4,.92-.7,2.16.37,6,1,2.15.35,3.24.52,4,0,.88-.59,1.24-1.83,1-7-.29-6.2-.99-7.93,0-11,.38-1.18,1.17-3.62,3-4,1.01-.21,2.22.22,3,1,.68.68.88,1.47,1,2,.48,2.06-.53,3.05,0,4,.46.82,1.77,1.09,4,1,3.82-.15,5.67-1.16,9-2,3.1-.79,8.41-2.13,10,0,.92,1.24.27,3.2,0,4-1.31,3.92-5.34,5.3-5,6,.26.54,2.91.32,5-1,1.29-.81,1.64-1.59,3-2,1.3-.39,2.44-.13,3,0,5.69,1.32,11.37,10.8,18,16,.59.46,2.1,1.61,2,3-.08,1.07-1.09,1.94-3,3-3.54,1.97-5.12,1.81-8,3-1.72.71-7.2,2.99-8,7-.42,2.14.83,3.04,0,5-1.02,2.41-3.38,2.18-4,4-.91,2.7,3.21,6.39,5,8,4.43,3.97,9.56,5.84,10,6,4,1.42,6.5,1.35,7,3,.42,1.38-.8,3.12-2,4-1.32.97-2.51.8-6,1-2.63.15-6.94.39-7,1-.05.49,2.63.86,6,2,3.37,1.14,8.14,2.38,11,6,2.85,3.61,2.18,6.57,6,10,.59.53,4.62,4.14,8,3,1.58-.53,1.4-1.56,4-4,3.44-3.23,5.4-2.98,6-5,.46-1.54-.35-3.05-2-6-2.07-3.7-4.26-6.18-5-7-5.08-5.65-6.21-5.64-8-8-2.66-3.51-2.81-8.72-3-19-.12-6.47.25-8.64,0-18-.13-4.78-.33-8.12-2-12-1.28-2.96-2.23-3.49-3-6-1.33-4.34-.17-8.23,1-12,2.54-8.15,6.47-11.86,7-19,.06-.82.2-3.39-1-4-1.19-.6-2.51,1.32-5,1-1.29-.17-2.83-.93-3-2-.12-.72.41-1.38,1-2,1.97-2.07,4.12-3.08,6-4,4.95-2.41,5.78-3,6-4,.22-1.01-.21-2.23-1-3-2.03-1.99-5.18.22-11-1-1.8-.38-3.57-.77-4-2-.68-1.95,2.51-4.59,3-5,1.13-.94,3.12-2.25,7-3,5.12-.99,7.47.18,14-1,1.84-.33,3.42-.75,4-2,.55-1.19.15-3.05-1-4-2.09-1.73-5.09.82-8-1-.94-.59-2.05-1.75-2-3,.08-2,3.07-3.45,5-4,2.31-.66,3.69-.22,11,1,5.28.88,7.19,1.09,8,0,.79-1.06.09-2.77,0-3-1.02-2.5-4.06-3.49-6-4-7.37-1.92-15.62-1.27-24-1-12,.39-14.26-.34-16-2-2.15-2.05-2.75-4.8-6-6-2.54-.93-4.97-.29-6,0-4.51,1.26-7.15,4.85-8,6-13.59,18.36-15.05,14.98-23,30-1.17,2.21-14.73,28.09-20,50-.56,2.32-2.58,11.05-5,11-.96-.02-1.69-1.4-2-2-1.53-2.92-.25-5.93,0-9,.57-7.07.94-11.6,3-17,.92-2.42,2.16-4.96,1-7-.8-1.41-2.1-1.45-3-3-1.09-1.87-.57-4.14,0-6,2.75-8.95,7-14,7-14,10.68-12.7,16.01-19.05,17-20,13.31-12.8,19.96-19.2,29-25,7.95-5.1,19.72-12.49,37-16,9.04-1.83,17.03-1.56,33-1,13.66.48,17.94,1.75,21,5,2.78,2.95,3.84,6.79,8,8,1.44.42,2.31.25,8-1,9.13-2,13.74-3.07,16-6,.4-.53,1.32-1.75,1-3-.29-1.12-1.43-1.72-2-2-3.63-1.79-7.31-1.99-11-3-4.96-1.36-6.57-3.25-11-3-.8.04-2.77.17-3,1-.3,1.08,2.53,2.73,3,3,2.37,1.38,4.45,1.7,6,2,5.42,1.05,8.71,1.69,11,4,1.99,2,2.5,4.54,3,7,.78,3.82-.03,5.5,0,9,.02,1.98.07,8.74,4,13,4.33,4.69,12.36,5.29,18,3,3.98-1.62,5.94-4.34,11-12,13.89-21.04,15.82-25.93,22-28,5.4-1.81,6.53,1.05,14,0,7.69-1.08,14.15-5.18,24-15,16.37-16.31,24.55-24.47,29-38,.93-2.83,8.31-26.4-2-49-11.69-25.62-39.7-35.91-57-42-151.12-53.16-185.18-57.56-202-89-6.74-12.6-25.2-47.11-15-84,12.72-46.01,56.36-46.36,128-120,45.5-46.77,55.24-74.73,59-93,1.07-5.19,12.61-61.25-10-79-3.11-2.44-12.5-8.58-18-20,0,0-3.54-7.35-3-17,.35-6.28,2.17-7.59,3-8,1.39-.69,2.96-.36,4,0,.96,2.44,1,3,1,3,.07.88-.1,2.55-1,3-1.49.75-5.1-1.76-6-5-.24-.88-.16-1.92,0-4,.24-3.04.88-5.54,1-6,.66-2.5,1-2.67,1-4,0-1.82-.66-3.27-1-4-.64-1.38-1.42-2.31-2-3-.65-.77-1.15-1.37-2-2-.43-.32-1.54-1.08-3-2-.56-.35-1-.62-1-1,0-.28.3-.49,1-1,1.06-.78,2.16-.89,3-1,.46-.06,2.95-.38,5-1,1.43-.43,2.74-.85,4-2,.48-.44,1.53-1.42,2-3,.12-.41.24-.99,0-4-.23-2.82-.45-3.75,0-4,.55-.3,1.6.68,2,1,.69.56,1.1,1.18,2,3,1.48,2.99,1.28,3.15,2,4,.43.5,1.43,1.66,3,2,.39.08.44.04,2,0,1.33-.03,2.67,0,4,0h3c.74-.11,1.32-.29,2,0,.12.05.84.36,1,1,.04.17.16.8-1,2-1.04,1.08-1.85,1.3-3,2-.6.36-2.71,1.66-4,4-.38.68-.9,1.66-1,3-.09,1.29.25,2.31,1,4,2,4.51,3.58,6.31,3,7-.27.32-.85.22-2,0-1.65-.31-3.1-.93-5-2-2.55-1.44-2.84-1.96-4-2-1.13-.04-1.96.42-3,1-2.31,1.28-2.41,2.49-5,4-.87.51-2.53,1.47-3,1-.25-.25-.06-.8,0-1,.83-2.6,1.18-7.05,1-9-.19-2.08-1.18-3.45-3-6-.5-.7-2.14-2.9-5-5-2.13-1.56-4.23-3.06-7-3-1.1.03-2.88.31-3,1-.13.7,1.47,1.75,3,2,1.77.29,3.22-.55,4-1,.6-.35,2.13-1.23,3-3,1.13-2.31.41-4.67,0-6-1.21-3.95-4.07-6.27-5-7-7.94-6.28-22-5-22-5-11.57,1.05-24.71-.97-51-5-24.44-3.75-44.19-6.78-57-22-6.72-7.99-15.02-23.75-25-27-1.51-.49-6.61-2.21-11,0-1.01.51-2.66,1.34-3,3-.32,1.59.66,3.44,2,4,2.21.92,5.46-1.64,7-4,3-4.6,1.45-11.45-1-16-3.92-7.29-9.56-7.57-12-15-1.28-3.89-.47-6.06,0-7,.96-1.92,2.59-2.79,3-3,1.6-.81,4.21-1.3,6,0,.59.42,1.06,1.28,2,3,1.01,1.84,1.05,2.51,1,3-.03.25-.18,1.36-1,2-.67.53-1.74.7-4,0-2.48-.77-6.54-2.03-9-6-.85-1.37-1.23-3.58-2-8-.64-3.69-.93-7.09-2-11-.04-.16-.39-1.4-1-3-.67-1.76-1.1-2.84-2-4-.46-.6-.44-.43-2-2-2.26-2.28-2.16-2.55-3-3-.86-.45-1.9-.64-4-1-2.96-.52-3.59-.32-5-1-.48-.23-.93-.52-2-1-1.59-.72-1.91-.69-2-1-.23-.77,1.4-1.99,4-4,.29-.22.62-.46,3-2,3.24-2.1,4.23-2.55,6-4,1.28-1.06,2.13-1.76,3-3,.64-.91,1.85-2.63,2-5,.08-1.22-.28-2.48-1-5-.43-1.5-.64-2.25-1-3-.8-1.65-1.56-2.27-2-4-.21-.81-.39-1.55,0-2,.67-.78,2.54-.15,3,0,2.5.83,3.01,2.32,6,5,3.06,2.74,5.37,3.74,6,4,2.17.89,3.64.98,4,1,1.16.06,2.35-.09,5-1,5.95-2.04,8.93-3.06,11-5,.39-.37,1.27-1.24,2-1,.78.26.97,1.67,1,2,.2,1.92-.93,3.43-2,5-1.68,2.46-3.78,5.53-5,9-.7,1.99-1.15,3.27-1,5,.08.86.43,3.31,5,8,4.55,4.67,8.52,6.67,8,8-.12.3-.75.54-2,1-1.37.51-2.52.97-4,1-1.67.04-3.07-.4-5-1-2.12-.66-1.98-.87-3-1-2.22-.28-4.05.56-5,1-.59.27-1.81.84-3,2-1.15,1.11-1.35,1.87-3,5-1.33,2.52-2.01,3.8-3,5-1.15,1.39-2.76,3.35-4,3-1.15-.32-.87-2.5-2-6-2-6.2-2.14-7.27-3-9-2.09-4.19-5.53-6.41-8-8,0,0-6.5-4.2-17-4-.68.01-2,.08-3,1-.9.83-1.53,2.32-1,3,.62.79,2.54.15,3,0,1.41-.47,2.35-1.32,3-2,1.52-1.58,4.16-4.33,4-8-.07-1.64-.68-3.08-2-5-3.89-5.66-9.2-8.56-10-9-20.6-11.27-22.43-12.98-24-15-1.06-1.37-5.44-7-5-14,.57-9,8.76-15.13,11-17,18.85-15.76,27.5-73.87,6-107-14.08-21.69-27.6-11.92-60-46-18.54-19.5-27.81-29.25-29-44-.49-6.11-.42-23.7-7-37-1.12-2.25-3.64-7.34-6-7-2.09.3-2.94,4.68-3,5-.93,5.01,2.32,9.13,3,10,2.51,3.19,5.79,4.52,7,5,.28.11,1.11.43,2.2.7,5.24,1.3,10.01-.14,11.8-.7,4.22-1.33,6.69-3.32,10-6,2.27-1.84,3-2.83,3-4,0-1.84-1.82-3.96-4-4-2.6-.05-3.95,2.88-4,3-1.48,3.36,1.37,7.17,2,8,3.02,4.02,7.71,4.83,9,5,.48.06,7.09.83,12-4,.66-.65,4.23-4.17,4-9-.09-1.84-.81-5.44-3-6-1.04-.26-2.29.2-3,1-1.74,1.97-.28,5.92,1,8,2.1,3.42,5.49,4.71,9,6,3.61,1.33,9.87,3.62,18,2,7.34-1.46,11.96-5.28,14-7,2.81-2.37,7.52-6.36,7-11-.05-.43-.33-2.51-2-4-1.72-1.53-4.71-2.26-6-1-1.19,1.17-.55,3.71,0,5,2.52,5.89,12.28,6.83,14,7,.99.1,17.09,1.38,26-11,6.16-8.55,4.84-18.01,4-24-1.36-9.71-6.72-23.94-17-27-.31-.09-7.6-2.19-10,1-1.13,1.5-1.17,4.17,0,5,1.24.88,3.76-.35,5-2,.45-.59,1.31-2.01,1-5-.14-1.33-.78-5.62-6-11-4-4.12-7.49-7.72-13-8-5.23-.27-11.09,2.5-13,7-.3.72-1.56,3.69,0,6,1,1.47,3.09,2.6,5,2,2.26-.71,2.96-3.45,3-5,.02-.74-.06-3.01-3-6-3.79-3.86-11.62-8.1-21-7-11.03,1.29-16.99,9.29-19,12-4.18,5.62-8.69,15.69-5,21,.22.31,2.43,3.4,5,3,1.44-.23,2.95-1.54,3-3,0-.29-.01-1.36-2-3-2.57-2.12-5.53-2.82-7-3-5.54-.69-17.86,2.36-24,13-4.4,7.62-5.35,18.67-1,22,1.03.79,3.11,1.72,5,1,1.95-.74,3.21-3.03,3-5-.38-3.55-5.37-4.84-6-5-1.67-.43-3.1-.32-3.93-.2-4.28.6-9.42,3.66-13.07,8.2-8.64,10.72-5.42,25.23-5,27,.57,2.41,2.86,11.46,11,18,6.58,5.28,13.72,6.31,19,7,35.2,4.61,52.8,6.92,66,5,15.83-2.3,25.69-3.73,36-10,29.05-17.68,34.55-57.31,37-75,7-50.53-14.17-64.33,0-109,2.94-9.28,12.18-35.14,29-43,6.27-2.93,16.8-4.9,23-6,.95-.17,5.42-.92,11,0,5.24.87,6.56,2.4,7,3,1.78,2.4,1.98,6.5,0,8-1.5,1.13-3.76.4-5,0-4.28-1.38-6.49-5.08-7-6-2.6-4.66-1.67-9.5-1-13,.55-2.87,2.22-11.52,10-17,1.37-.96,5.3-3.65,11-4,1.05-.06,5.35-.24,10,2,1.95.94,3.83,1.88,5,4,1.17,2.11,1.77,5.65,0,7-1.09.83-2.83.63-4,0-.82-.44-2.15-1.52-3-6-1.05-5.55-.19-10.06,0-11,.26-1.3,1.34-6.22,5-12,2.88-4.54,5.97-9.4,12-12,5.55-2.39,10.73-1.63,15-1,3.06.45,7.39,1.09,12,4,7.05,4.46,9.8,11.1,11,14,2.63,6.36,2.31,11.21,2,16-.12,1.82-.41,3.97-2,5-1.18.76-2.99.87-4,0-1.74-1.49-.32-5.17,0-6,.26-.68,1.34-3.26,4-5,5.11-3.35,11.8-.83,14,0,6.64,2.5,10.05,7.54,11,9,3.15,4.81,3.63,9.43,4,13,.28,2.72.72,7.42-1,13-.87,2.83-3.33,10.8-11,15-.66.36-9.77,5.19-16,1-.19-.13-4.72-3.26-4-7,.34-1.77,1.88-3.8,4-4,2.22-.21,3.78,1.72,4,2,.35.45,1.57,2.15,1,6-.16,1.09-1.07,6.4-7,12-5.41,5.1-11.24,6.89-15,8-6.41,1.89-11.93,3.51-18,1-4.49-1.86-6.92-5.01-10-9-1.25-1.62-2.2-3.15-2-5,.17-1.54,1.17-3.64,3-4,2.04-.4,3.7,1.62,4,2,1.56,1.99,1.21,4.49,1,6-.1.75-.43,2.91-2,5-.89,1.18-1.43,1.36-5,4-3.67,2.72-3.25,2.65-4,3-4.23,1.99-8.77.1-9,0-3.38-1.47-4.94-4.17-6-6-.34-.59-1.86-3.31-2-7-.06-1.54-.1-3.22,1-4,.85-.6,2.13-.48,3,0,2.16,1.21,2.04,4.88,2,6-.18,5.12-3.65,8.65-4,9-4.97,4.91-12.24,4.25-15,4-2.81-.26-10.39-1.45-16-8-4.23-4.94-6.86-12.37-5-19,.23-.81,2-6.85,6-8,.4-.12,1.63-.47,3,0,1.89.65,2.72,2.41,3,3,1.16,2.45.39,4.81,0,6-.4,1.24-.91,2.79-2,3-.98.19-1.89-.8-3-2-.69-.75-2.14-2.35-3-5-.71-2.18-.66-3.99-.63-5.01,0,0,.07-2,.63-3.99,6.31-22.37,15-35,15-35,18.23-26.69,44.32-36.3,52-39,15.03-5.29,15.72-1.75,53-7,29.34-4.13,44.01-6.2,59-13,11.98-5.43,43.28-18.8,47-40,6.41-36.5-64.23-50.53-101-119-41.17-76.66,9.58-129.46-40-186-8.2-9.35-39.99-45.61-88-53-27.08-4.17-44.54,3.13-63-11-17.72-13.56-28.49-40.83-20-57,7.72-14.7,25.39-8.86,35-25,9.39-15.76,4.92-42.12-9-54-11.05-9.43-23.22-5.62-27-15-3.55-8.82,3.18-22.24,9-23,1.98-.26,3.72.98,7,0,.47-.14,4.72-1.41,5-4,.24-2.21-2.55-4.04-4-5-.92-.61-5.39-3.38-11-2-1.13.28-6.47,1.6-7,5-.36,2.34,1.64,5.15,3,5,1.13-.12,1.95-2.32,2-4,.06-1.89-.85-3.27-2-5-1.53-2.32-2.47-3.73-4-4-2.52-.44-4.88,2.57-6,4-1.15,1.46-4.5,6.31-3,12,.58,2.18,2.05,5.18,3,5,1.44-.28,2.77-8.02-1-11-.19-.15-2.18-1.67-4-1-2.29.84-2.72,4.56-3,7-.51,4.36-1.1,9.52,2,13,5.33,5.96,17.92,2.9,23-3,.48-.55,2.85-3.31,2-5-.86-1.71-4.66-1.55-7-1-5.81,1.36-9.14,6.64-10.5,8.8-.32.5-1.47,2.37-2.5,5.2-.72,1.99-4.28,11.76-1,15,3.3,3.26,12.36-1.22,18-4,10.09-4.98,20.6-10.17,23-21,1.79-8.1-1.9-15.09-3-17-7.44-12.89-27.17-19.69-42-12-13.05,6.77-15.73,21.35-16,23-3.56,21.34,16.66,36.05,18,37,15.94,11.22,33.97,7.06,38,6,20.22-5.32,35.51-23.96,38-45,3.45-29.14-19.47-47.8-21-49-20.93-16.45-45.65-10.71-53-9-5.15,1.19-31.74,7.37-44,32-8.96,18-5.1,35.48-3,45,2.17,9.83,5.85,26.48,20,37,13.03,9.68,27.75,8.83,42,8,13.46-.78,65.06-6.04,86-45,4.35-8.09,5.76-14.62,8-25,5.43-25.15,2.99-48.42,0-75-2.59-23.07-4.66-27.9-1-37,6.75-16.77,25.6-29.7,33-26,1.86.93,4.01,3.43,4,6-.02,2.91-2.8,4.65-5,7-3.44,3.67-4.29,7.78-6,16-3.35,16.13-3,35-3,35-.54,15.98.37,22.52,1,59,.27,15.51.39,23.33,0,26-2.15,14.63-7.27,23.59-6,40,.38,4.92.6,7.43,2,10,7.24,13.29,33.21,15.36,47,7,1.66-1.01,5.06-3.06,8-7,3.68-4.93,2.45-7.15,6-14,3.34-6.44,7.7-10.75,10-13,3.36-3.28,3.35-2.46,7-6,3.52-3.42,7.33-7.19,10-13,1.1-2.39,1.73-4.6,3-9,.28-.99.93-3.27,2-8,.92-4.03.95-4.58,3-15,.91-4.63.55-9.51,2-14,.13-.42.59-1.76,0-3-.53-1.12-1.78-1.9-3-2-1.53-.13-2.63.82-4,2-.94.81-3.2,2.76-4,6-.49,1.99.13,2.18,0,5-.09,1.88-1.38,4.5-3,10-.62,2.1-1.21,4.14-3,5-.88.42-2.24.65-3,0-.68-.58-.81-1.81,0-5,1.33-5.23,3-8,3-8,5.86-9.75,3.87-8.25,9-16,6.49-9.82,9.74-14.72,10-15,.74-.78,2.84-2.95,3-6,.02-.43.15-3.77-2-5-1.5-.86-3.32-.23-4,0-1.63.56-2.63,1.6-3,2-6.9,7.36-8,9-8,9-3.53,4.53-6.29,8.94-12,16-2.43,3-5.56,6.69-7,6-.55-.26-.77-1.11-1-2-.47-1.79-.15-3.29,0-4,.72-3.32,1.09-4.98,2-7,2.39-5.28,4.78-10.57,10-15,1.14-.97,3.53-2.83,6-6,1.81-2.32,2.42-3.74,2-5-.45-1.33-1.88-1.95-2-2-.56-.23-1.43-.43-3,0-2.84.77-4.7,2.69-5,3-8.07,8.48-11,13-11,13-6.33,9.76-9.5,14.64-10,16-.32.88-1.39,3.92-4,5-.14.06-2.15.86-3,0-.34-.35-.29-.95,0-3,.35-2.49,1.49-4.22,2-5,4.94-7.53,3.87-7.12,7-11,4.33-5.36,8.18-10.13,12-13,.33-.25,2.18-1.63,3-4,.24-.7.68-2.03,0-3-.55-.79-1.56-.94-2-1-1.89-.28-3.43.81-4,1-1.4.47-4.94,1.79-10,6-4.72,3.93-7.56,7.7-10,11-3.59,4.85-5.39,7.27-6,10-1.86,8.31-2,9-2,9-.2,1.01-.54,2.78-2,4-.3.25-1.86,1.49-3,1-1.8-.77-1.53-5.37-1-8,.57-2.85,1.73-4.83,3-7,2-3.42,3-5.12,5-7,1.5-1.41,3.04-2.42,3-4-.02-.76-.4-1.54-1-2-.3-.23-1.32-.9-4,0-3.96,1.32-6.5,4.38-7,5-3.98,4.9-7.9,9.72-10,18-1.52,5.99-1.3,10.67-1,17,.39,8.26,1.58,9.15,2,17,.45,8.54-.54,15.3-1,18-1.36,8.01-4.08,16.21-6,22,0,0-1.84,5.54-2,14-.04,1.85.03,3.46,1,5,1.01,1.61,2.92,3,9,4,3.05.5,9.28,1.26,18,0,4.86-.7,7.69-1.14,11-3,2.01-1.13,2.07-1.58,6-4,4.85-2.98,7.11-3.73,8-4,2.51-.77,4.61-.93,6-1,21.34-1,39,1,39,1,13.52,1.53,33.68,1.36,74,1,1.11,0,4.89-.05,6,2,.61,1.12-.05,1.99,0,4,.08,3.27,1.94,5.88,3,7,.82.87,2.51,1.69,9,3,2.77.56,10.33,1.76,19-1,3.44-1.1,5.95-2.46,8-4,2.1-1.57,4.18-3.17,5-6,.6-2.06.29-3.91,0-5,.53-2.62.31-4.63,0-6-.56-2.46-1.53-3.35-2-6-.4-2.22-.13-3.87,0-5,.56-4.84-.43-8.49-1-13-.62-4.92-.15-6.04,0-27,0,0,.06-8.73-1-25-.15-2.34-.41-5.83-2-10-.67-1.75-2.12-4.19-5-9-2.96-4.94-4.22-6.84-6-9-3.52-4.28-5.42-5.16-7-5-.23.02-1.41.14-2,1-.53.77-.54,2.08,1,5,2.23,4.23,3.78,4.39,6,8,2.11,3.42,2.73,6.54,3,8,.38,2.02.56,4.39,0,7-.29,1.37-.81,3.81-2,4-1.25.2-2.57-2.22-3-3-1.86-3.4-1.62-6.12-2-9-.38-2.87-.83-1.8-5-12-2.49-6.08-2.87-7.79-5-11-1.35-2.04-2.53-3.35-4-5-3.52-3.93-5.13-4.68-6-5-.39-.14-3.86-1.4-5,0-.62.77-.28,2.02,0,3,.85,2.94,2.78,4.79,3,5,2.29,2.21,1.48,3.14,7,14,1.11,2.18,4.76,9.25,7,15,0,0,.81,2.08,1,5,.13,1.95.27,4.14-1,5-1.14.78-2.82.08-3,0-2.79-1.2-3.12-5.3-4-7-1.18-2.28-2.93-5.9-7-17-1.63-4.45-3.5-9.72-7-16-.91-1.64-2.64-4.6-6-6-.5-.21-4.17-1.73-6,0-1.01.96-1,2.48-1,3,.02,2.98,2.25,5.21,3,6,.63.67,2.76,4.78,7,13,3.94,7.62,5.85,12.87,7,17,.28,1.01,1.23,4.5,1,9-.11,2.15-.51,4.99-1,5-.31,0-.5-1.13-1-3-.12-.47-.75-2.31-2-6-1.53-4.5-2.73-8.06-5-12-1.62-2.82-3.11-4.66-5-7-3.56-4.4-6.22-6.65-8-8-2.32-1.75-5.38-4.01-7-3-.67.42-.91,1.29-1,2,0,0,.58,3.48,1,5,.82,3.01,2.71,4.59,5,7,4.32,4.54,6.94,8.72,9,12,1.95,3.1,3.67,5.88,5,10,.42,1.29.94,4.19,2,10,0,0,.66,3.6,1,9,.21,3.33.17,5.34-1,6-.8.45-1.78.09-2,0-1.57-.63-2.15-2.52-3-6-1.01-4.14-1.3-6.01-2-9-.78-3.35-1.17-5.03-2-7-.43-1.03-.49-.99-4-7-1.24-2.12-2.25-3.86-4-6-1.68-2.05-2.71-2.84-4-3-.95-.12-2.37.07-3,1-.43.63-.31,1.34,0,3,.58,3.07.87,4.6,1,5,1.03,3.13,2.25,3.65,3,6,.84,2.64.94,4.73,1,8,.15,8.03-.17,10.17,0,15,.18,5.07.27,7.6,1,10,.59,1.97,1.84,4.98,10,13,10.15,9.98,14.18,11.17,18,18,.2.36,1.32,2.38,3,5,4.62,7.22,6.71,8.44,8,9,1.37.59,2.58.73,5,1,.94.11,3.64.37,7,0,4.76-.52,8.38-2.03,13-4,3.44-1.47,6.66-3.1,12-5,1.83-.65,2.75-.92,4-1,3.25-.2,4.43,1.19,8,1,1.55-.08,2.88-.15,4-1,2.43-1.83,2.14-5.99,2-8-.43-6.33.12-12.76-1-19-.37-2.04-.91-11.69-2-31-.55-9.82-.84-14.88-1-22-.16-7.22-.49-23.52,1-44,.36-5,.6-10.01,1-15,.67-8.32,1.74-19.15-2-26-1.62-2.97-3.36-3.76-4-4-1.77-.67-2.9-.09-6,0-1.67.05-6.56.19-7-1-.7-1.88,10.52-4.96,19-13,6.42-6.08,4.9-8.98,16-34,7.69-17.33,8.3-15.68,12-26,3.58-9.97,5.78-19.24,8-19,1.37.15,1.96,3.82,2,4,.96,4.48-2.41,8.35-3,10-3.72,10.28-8,14.11-12,23-2.21,4.9-7.9,18-15,33-2.8,5.92-5.01,10.41-10,14-4.89,3.52-9.87,4.3-15,5-23.69,3.23-31,3-31,3-39.75-1.22-40.6,2.78-74,0-28.75-2.39-50.84-7.25-66-5-2.16.32-5.16.93-9,0-8.03-1.94-10.26-8.3-20-12-3.9-1.48-6-2-6-2-4.56-1.12-6.19-.65-8-2-2.14-1.6-2.46-4.21-3-7-1.7-8.87-3.27-7.5-5-16-1.66-8.18-3.11-15.3,0-23,.7-1.74,3.4-8.41,10-12,6.38-3.47,13.15-2.29,15-2,29.65,4.64,60-1.58,90-2,42.33-.59,84.67.44,127,0,1.65-.02,6.35-.08,9,3,1.13,1.32,1.83,3.15,2,7,.33,7.65-1.85,13.6-2,14-6.62,18.04-3.59,24.71-12,38-2.46,3.88-5.39,7.54-10,9-4.11,1.3-7.77.31-9,0-9.33-2.33-18.89.13-47-1,0,0-89.6-3.54-127-3-3.31.05-8.81.29-13,4-3.67,3.24-2.6,5.83-6,9-6.55,6.1-17.97,3.47-20,3-2.82-.65-8.71-2.01-13-7-3.16-3.68-4.11-7.76-5-18-1.16-13.25-.43-16.25-1-30-.43-10.51-1.19-16.74,1-26,1.27-5.38,2.86-8.92,6-11,4.9-3.25,11.31-1.43,13-1,11.7,2.98,15.44-4.67,124-1,24.16.82,93.45,3.54,110,2,2.7-.25,8.52-1.04,17-1,0,0,6.92,1.6,12,0,.85-.27,1.64-.64,1.64-.64s.13-.06.27-.13c.88-.43,12.16-16.38,12.09-24.23-.19-22.67-46.84-50.68-95-55-53.63-4.82-71.84,23.09-153,24-36.64.41-45.06-5.14-49-11-15.31-22.78,35.89-58.84,20-107-6.32-19.16-22.33-44.35-31-58-10.88-17.12-18.53-26.71-23-33-47.01-66.09-5.95-136.75-51-176-9.54-8.31-28.19-19.78-44-43-6.3-9.26-12.04-20.21-8-28,1.23-2.37,4-5.67,8-7,5.11-1.7,6.89,1.59,15,1,.9-.07,7.46-.63,13-5,.79-.62,3.49-2.76,3-4-.33-.83-1.96-.93-3-1-3.02-.19-5.39.75-6,1-11.24,4.61-11.85,4.91-13,6-1.61,1.53-3.9,3.77-4,7-.01.33-.04,2.05,1,4,2.11,3.95,6.73,5.32,9,6,20.28,6.04,18.05,5.68,20,6,13.05,2.16,19.57,3.23,29,4,3.74.3,17.08,1.33,35,1,3.3-.06,13.2-.71,33-2,6.93-.45,14.9-1,25-3,1.53-.3,6.35-1.87,16-5,4.8-1.56,8.2-2.72,10-6,.22-.41,1.55-2.91,1-6-.41-2.33-1.77-4.26-5-7-5.21-4.43-10.22-6.66-11-7-18.44-8.06-19.9-7.64-24-11-2.35-1.92-6.72-5.6-9-12-2.71-7.61-.78-14.4,0-17,1.12-3.76,2.86-9.57,8-13,1.67-1.12,2.91-1.45,11-6,1.86-1.05,3.71-2.12,4-4,.24-1.56-.62-3.43-2-4-2.43-1.01-5.49,2.41-6,3-2.92,3.39-2.99,7.82-3,11,0,3.74.66,5.86,1,8,.49,3.09.22,5.58-5,21-4.8,14.18-6.07,16.5-8,19-1.8,2.33-4.46,5.71-9,8-3.87,1.95-7.22,2.16-16,2-11-.2-22.02.71-33,0-.08,0-4.56-.29-9,2-2.66,1.38-2.96,2.47-3,3-.03.41.04,1.47,2,3,3.72,2.91,8.43,2.99,9,3,13.51.25,18.55,3.38,44,1,4.33-.4,11.37-1.17,12-4,.19-.87-.17-2.18-1-3-1.26-1.25-3.29-1.06-4-1-9.31.8-18.68.39-28,1-5.18.34-11.35.74-19-1-11.58-2.63-19.09-8.46-21-10-7.37-5.96-11.09-12.55-13-16-4.48-8.11-4.98-13.43-13-34-1.27-3.26-3.01-7.53-7-9-3.42-1.26-7.45-.08-10,2-5.01,4.09-4.31,11.63-4,15,.41,4.5,1.72,6.78,5,14,8.1,17.81,9.69,24.83,16,27,.83.28,2.88.96,4,0,2-1.73.06-7.97-2-12-2.28-4.45-4.89-6.55-4-9,.32-.88,1.06-1.73,2-2,2.75-.8,6.97,3.46,8,8,.24,1.04.99,4.35-1,7-2.14,2.86-5.99,2.97-7,3-1.27.04-2.33-.17-3.13-.38-6.83-1.86-12.87-8.62-12.87-8.62-8.06-9.02-12.58-14.08-15-23-1.4-5.16-3.95-14.57,1-23,.85-1.44,4.28-7.28,11-9,4.52-1.15,8.33.11,11,1,3.78,1.25,6.85,3.84,13,9,2.45,2.06,4.02,3.57,5,6,.93,2.33,1.54,6.02,0,7-1.09.69-2.94-.18-4-1-2.34-1.82-2.75-4.9-3-7-1.44-12.21-2.16-18.34-2-20,.58-5.95.98-10.05,4-14,2.09-2.74,4.57-4.26,8-6,10.38-5.26,19.69-7.47,22-8,8.88-2.05,19.23-4.37,33-4,6.61.18,11.6.9,19,2,10.53,1.57,16.36,3.21,19,4,12.81,3.84,15.74,7.24,17,9,.86,1.21,3.18,4.56,3,9-.22,5.41-4.03,9.13-6,11-7.16,6.8-16.96,8.57-29,10-15.07,1.79-29.06,3.37-49,2-2.54-.17-15.02-1.11-30-6-7.26-2.37-11.02-4.33-14-8-3.82-4.7-6.33-12.16-4-19,1.76-5.15,5.55-7.89,10-11,11.44-8,23.68-9.3,31-10,9.69-.92,19.42-.13,21,0,5.24.44,7.45.98,13,1,3.31.01,6.49-.17,12,0,7.6.23,9.17.81,10,2,.59.85.69,2.43-1,8-2.59,8.53-8.73,10.98-15,22-1.81,3.19-4.33,7.62-3,9,1.5,1.55,7.31-1.3,11-4,9.1-6.66,7.68-14.18,14-25,8.98-15.38,19.41-13.16,30-32,1.07-1.9,6.54-11.64,4-14-1.43-1.32-4.91.13-7,1-6.42,2.68-10.27,7.16-11,8-.81.93-11.49,13.07-23,18-8.83,3.78-17.09,2.87-25,2-9.66-1.06-16.96-1.87-21-7-4.63-5.88-.79-12.11,1-28,3.23-28.74-5.35-43.79,4-51,2.38-1.84,6.15-3.34,8-2,4.95,3.57-8.8,23.87-2,31,3.01,3.15,8.79,2.43,12,1,9.22-4.1,11.11-20.2,6-28-1.09-1.66-1.73-1.78-3-4-3.09-5.39-4.34-13.46-1-16,1.76-1.34,4.81-1.16,7,0,8.32,4.4,10.21,26.04,2,42-4.93,9.58-11.89,10.9-20,25-4.91,8.54-11.92,24.66-7,29,4.05,3.57,15.61-1.36,23-8,6.28-5.64,12.73-15.36,15-41,2.8-31.59-5.57-32.93-3-56,3.6-32.32,22.07-47.94,13-61-5.26-7.58-16.51-8.86-16-16,.27-3.71,3.17-8.82,7-9,2.59-.12,4.87,2.07,6,4,1.57,2.69.86,5.63,0,9-.98,3.85-1.97,4.77-5,11-3.8,7.82-3.98,9.96-7,12-.86.58-3.07,2.03-6,2-6.65-.06-10.72-7.62-12-10-1.3-2.41-2.58-4.88-2-8,.12-.63.83-4.06,4-6,.82-.5,3.28-2.01,6-1,2.56.95,4.11,3.65,4,6-.05.96-.38,2.08-3,5-2.53,2.82-5.18,5.06-9,8-4.66,3.58-5.12,3.61-6,5-1.85,2.91-1.93,6.06-2,9-.09,3.55.54,6.37,1,8,.89,3.15,2.15,7.62,6,10,.29.18,3.59,2.17,5,1,1.21-1.01.36-3.8,0-5-1.3-4.28-4.02-6.99-5-8-3.38-3.48-1.06-2.28-9-13-8.59-11.6-10.47-11.88-12-17-1.17-3.92-2.2-10.91,1-13,1.53-1,3.67-.64,5,0,3.37,1.64,3.83,6.26,4,8,.47,4.78-1.29,8.63-3,12-5.99,11.79-8.59,12.32-12,20-2.87,6.47-6.08,13.71-3,19,2.72,4.67,8.84,5.23,10,11,.44,2.16.12,4.79,1,5,.67.16,1.58-1.2,2-2,.46-.88,1.54-3.42,0-8-1.39-4.13-3.87-6.77-5-8-1.34-1.45-9.56-10.4-15-19-3.14-4.97-4.33-8.2-5-11-.68-2.84-2.03-8.54,1-12,.29-.33,1.94-2.22,4-2,2.47.26,3.77,3.39,4,4,.82,2.14.6,4.35-1,9-1.27,3.68-2.76,7.02-6,13-4.11,7.58-5.92,9.94-8,10-1.87.05-3-1-3-1-.27-.25-1-.93-1-2,0-.77.36-1.56,1-2,1.08-.75,2.5-.19,3,0,2.13.84,2.96,3.17,4,5,1.07,1.89,4.69,8.26,2,15-.29.73-3.48,8.35-11,9-4.22.36-8.44-1.58-11-5-3.49-4.67-2.26-9.9-2-11,.41-1.76.98-4.15,3-5,2.07-.87,4.79.24,6,2,1.48,2.16.56,5.06,0,7-3.78,13.12-.04,14.15-4,22-1.87,3.71-5.16,10.33-12,12-5.86,1.43-10.69-1.25-12-2-10.55-6.07-10.14-20.78-10-26,.18-6.41,1.9-8.21,3-9,2.3-1.65,5.91-1.68,8,0,3.59,2.89.59,10.51,0,12-.57,1.45-4.2,10.13-11,11-6.29.8-9.62-5.81-14-4-3.42,1.42-2.5,5.91-7,9-3.6,2.48-7.83,2.1-9,2-8.76-.77-17.29-11.44-19-21-3.71-20.78,25.86-30.54,24-50-1.54-16.09-25.46-15.05-40-38-19.76-31.19-7.23-47.38-21-82-19.28-48.45-53.7-41.59-73-95-3.51-9.71-14.87-41.15-6-63,1.2-2.96,5.53-12.52,9-26,2.17-8.42,1.15-7.3,4-19,1.03-4.25,2.12-8.29,2-14-.11-5.36-1.2-8.54-3-11-.54-.73-3.43-4.7-6-4-2.19.59-2.85,4.2-3,5-.74,3.99,1.07,7.33,2,9,3.15,5.64,8.29,8.23,10,9,9.06,4.1,17.67.72,21-1,2-1.04,4.71-2.48,5-5,.22-1.88-.91-4.37-3-5-1.97-.59-3.74.79-4,1-2.41,1.95-2.05,5.5-2,6,.45,4.39,4.5,7.02,6,8,1.07.7,7,4.37,14,2,0,0,5.98-2.02,9-8,.81-1.6,1.89-3.81,1-6-.61-1.51-2.23-3.22-4-3-1.93.24-2.86,2.65-3,3-1.03,2.66.2,5.32,1,7,1.77,3.7,4.5,5.92,6,7,6.37,4.61,13.28,5.41,19,6,7.44.77,13.26,1.37,19-2,1.32-.77,5.44-3.27,7-8,.4-1.23,1.17-3.67,0-6-.21-.42-1.63-3.11-4-3-1.25.06-2.49.88-3,2-1.05,2.28,1.24,5.07,2,6,2,2.43,4.52,3.46,6,4,8.88,3.21,17.55,2.06,18,2,4.9-.7,10.75-1.53,16-6,7.4-6.29,8.47-15.42,9-20,.36-3.06,1.63-13.94-5-23-.35-.48-5.56-7.44-12-8-1-.09-2.95-.26-4,1-.96,1.15-1,3.26,0,4,1.1.82,3.1-.31,4-1,3.02-2.31,3-6.78,3-8-.01-3.99-1.71-6.88-3-9-1.16-1.92-4.08-6.73-10-9-1.64-.63-4.45-1.66-8-1-.62.12-5.04,1.01-8,5-.68.91-3.55,4.78-2,7,.96,1.37,3.31,1.72,5,1,2.52-1.07,2.9-4.22,3-5,.45-3.72-1.93-6.7-3-8-3.99-4.84-9.7-6.07-14-7-3.28-.71-8.95-1.86-16,0-7.49,1.98-12.07,6.18-14,8-2.57,2.42-6.89,6.59-8,13-.35,2.03-.89,5.11,1,7,2.06,2.07,6.51,2.19,8,0,1.16-1.7.27-4.4-1-6-.87-1.1-2.69-2.65-10-3-6.81-.33-11.38-.55-17,2-6.28,2.85-9.69,7.26-11,9,0,0-4.78,6.33-5,13-.04,1.13.07,2.64,1,4,.31.45,1.37,2,3,2,1.53,0,2.48-1.28,3-2,.9-1.23,1.7-3.34,1-5-1.05-2.5-4.94-2.83-7-3-5.76-.49-15.42,1.13-22,9-6.24,7.46-6.06,16.17-6,19,.2,9.23,4.46,15.72,6,18,6.86,10.15,17.6,14.51,33,19,27.74,8.08,50.08,10.58,54,11,37.03,3.97,57.93,1.25,70-1,20.32-3.79,26.8-8.36,31-13,8.86-9.78,11.52-24.26,9-36-2.59-12.05-8.88-13.03-16-28-8.34-17.56-8.12-33.94-8-39,.49-20.05,8.45-34.16,17-50,10.02-18.57,21.53-30.94,29-38,0,0,22.96-21.71,44-24,1.63-.18,7.23-.7,13,2,2.08.98,4.62,2.21,6,5,.88,1.77,1.79,5.21,0,7-1.38,1.37-3.61,1.05-4,1-3.27-.47-5.15-3.59-6-5-2.95-4.9-2.27-10.15-2-12,.81-5.63,3.69-9.35,5-11,5.18-6.53,12-8.46,14-9,2.84-.76,7.7-2.07,13,0,3.19,1.24,5.17,3.18,6,4,1.4,1.39,3.68,3.66,4,7,.07.72.3,3.22-1,4-1.39.84-3.79-.74-5-2-.43-.45-1.55-1.74-2-4-.56-2.79.22-5.4,2-9,2.26-4.58,4.03-8.18,8-12,7.15-6.87,15.29-8.55,18-9,3.19-.52,8.69-1.36,15,1,6.18,2.31,9.76,6.42,12,9,2.05,2.36,4.65,5.34,6,10,.55,1.91.07,1.23,1,10,.51,4.76.81,6.49,0,9-.35,1.08-1.49,4.6-4,5-1.1.18-2.25-.28-3-1-1.19-1.14-1.28-2.85-1-4,.54-2.23,3.01-3.21,5-4,1.39-.55,5.16-1.99,10-1,5.77,1.18,9.2,5,11,7,1.28,1.42,4.89,5.55,6,12,1.35,7.83-1.87,13.96-4,18-1.25,2.38-2.8,5.26-6,8-4,3.43-8.11,4.52-10,5-2.23.57-9,2.28-15-1-3.07-1.68-3.82-3.51-4-4-.59-1.61-.81-4.37,1-6,.97-.87,2.5-1.41,4-1,1.98.54,2.76,2.43,3,3,.51,1.21.62,2.65,0,5-.47,1.8-1.5,5.54-5,9-3.86,3.82-8.25,4.87-13,6-1.65.39-6.54,1.45-13,1-3.95-.28-8.17-.57-13-3-1.45-.73-6.51-3.43-10-9-2.02-3.22-2.06-5.08-2-6,.18-2.57,1.78-5.93,4-6,1.87-.06,3.46,2.25,4,4,.79,2.57-.4,4.86-1,6-1.26,2.42-3.11,3.69-5,5-1.82,1.25-3.51,2.42-6,3-5.5,1.27-10.1-1.44-11-2-3.9-2.41-5.49-5.85-6-7-.68-1.52-1.56-3.58-1-6,.07-.32.92-3.8,3-4,1.3-.13,2.47,1.07,3,2,.99,1.73.41,3.65,0,5-1.07,3.55-3.54,5.62-4,6-3.61,2.95-7.82,2.98-10,3-4.89.04-8.43-1.72-11-3-2.13-1.06-6.43-3.26-10-8-1.04-1.37-2.98-4.01-4-8-.53-2.08-1.49-5.81,0-10,1.14-3.21,4-7.49,8-8,.54-.07,2.67-.34,4,1,1.09,1.09,1.04,2.66,1,4-.04,1.31-.12,4.04-2,5-1.24.64-2.6.16-3,0-1.98-.8-3.02-3.11-3-5,.02-1.92,1.14-2.39,1-4-.18-2.09-2.25-3.36-3-4-4.25-3.62-.06-15.62,2-24,1.26-5.15,4.42-18.01,2-30-1.91-9.45-6.57-14.8-10-20-15.11-22.89-21.6-62.5-6-85,5.75-8.29,15.14-15.13,21-32"/>
  </g>
</svg>